<?xml version="1.0" encoding="UTF-8" standalone="no"?>
<!-- Created with Inkscape (http://www.inkscape.org/) -->

<svg
   width="28"
   height="28"
   viewBox="0 0 7.4083332 7.4083333"
   version="1.1"
   id="svg1"
   xml:space="preserve"
   xmlns="http://www.w3.org/2000/svg"
   xmlns:svg="http://www.w3.org/2000/svg"><defs
     id="defs1"><style
       id="style1">.cls-1{fill:none;stroke:#ffffff;stroke-miterlimit:10;stroke-width:1.91px;}</style></defs><g
     id="layer1"><rect
       style="fill:#006400;fill-opacity:1;stroke-width:0.264583"
       id="rect1"
       width="7.4103646"
       height="7.4112854"
       x="0"
       y="-0.0010335286" /><g
       style="fill:#ffffff"
       id="g2"
       transform="matrix(0.22268308,0,0,0.22268308,1.0405686,0.97885502)"><g
         id="SVGRepo_bgCarrier"
         stroke-width="0" /><g
         id="SVGRepo_tracerCarrier"
         stroke-linecap="round"
         stroke-linejoin="round" /><g
         id="SVGRepo_iconCarrier"><defs
           id="defs1-6"><style
             id="style2">.cls-1{fill:none;stroke:#ffffff;stroke-miterlimit:10;stroke-width:1.91px;}</style></defs><polygon
           class="cls-1"
           points="12.37,10.09 7.41,10.09 4.93,14.39 7.41,18.68 12.37,18.68 14.85,14.39 "
           id="polygon1" /><line
           class="cls-1"
           x1="0.51999998"
           y1="13.91"
           x2="5.29"
           y2="13.91"
           id="line1" /><polygon
           class="cls-1"
           points="19.82,6.27 14.86,6.27 12.38,10.57 14.86,14.86 19.82,14.86 22.3,10.57 "
           id="polygon2" /><line
           class="cls-1"
           x1="19.49"
           y1="6.5599999"
           x2="21.860001"
           y2="2.45"
           id="line2" /><line
           class="cls-1"
           x1="19.559999"
           y1="14.46"
           x2="21.93"
           y2="18.559999"
           id="line3" /><polyline
           class="cls-1"
           points="7.41 1.5 4.93 5.79 7.41 10.09"
           id="polyline3" /><polyline
           class="cls-1"
           points="19.61 22.5 14.8 22.5 12.58 18.68"
           id="polyline4" /></g></g></g></svg>
