<?xml version="1.0" encoding="UTF-8" standalone="no"?>
<!-- Created with Inkscape (http://www.inkscape.org/) -->

<svg
   width="28"
   height="28"
   viewBox="0 0 7.4083332 7.4083336"
   version="1.1"
   id="svg1"
   xml:space="preserve"
   xmlns="http://www.w3.org/2000/svg"
   xmlns:svg="http://www.w3.org/2000/svg"><defs
     id="defs1" /><g
     id="layer1"><rect
       style="fill:#800080;fill-opacity:1;stroke-width:0.264583"
       id="rect1"
       width="7.4087696"
       height="7.4085059"
       x="-0.0010335286"
       y="0" /><g
       style="fill:#ffffff"
       id="g1"
       transform="matrix(0.11997243,0,0,0.11997243,0.34493845,0.34493845)"><g
         id="SVGRepo_bgCarrier"
         stroke-width="0" /><g
         id="SVGRepo_tracerCarrier"
         stroke-linecap="round"
         stroke-linejoin="round" /><g
         id="SVGRepo_iconCarrier"><path
           d="m 24.5898,49.5742 c 0.961,0 1.6641,-0.7265 1.6641,-1.6406 V 8.0664 c 0,-0.914 -0.7031,-1.6406 -1.6641,-1.6406 -0.9374,0 -1.6406,0.7266 -1.6406,1.6406 v 39.8672 c 0,0.9141 0.7032,1.6406 1.6406,1.6406 z m 13.6407,-4.6875 c 0.9375,0 1.6406,-0.75 1.6406,-1.664 V 12.7773 c 0,-0.914 -0.7031,-1.664 -1.6406,-1.664 -0.9375,0 -1.6641,0.75 -1.6641,1.664 v 30.4454 c 0,0.914 0.7266,1.664 1.6641,1.664 z M 17.793,41.0898 c 0.9375,0 1.6406,-0.7265 1.6406,-1.6406 V 16.5508 c 0,-0.9141 -0.7031,-1.6406 -1.6406,-1.6406 -0.961,0 -1.6641,0.7265 -1.6641,1.6406 v 22.8984 c 0,0.9141 0.7031,1.6406 1.6641,1.6406 z m 13.6172,-2.5312 c 0.9374,0 1.664,-0.7266 1.664,-1.6406 V 19.082 c 0,-0.914 -0.7266,-1.6406 -1.664,-1.6406 -0.9375,0 -1.6407,0.7266 -1.6407,1.6406 v 17.836 c 0,0.914 0.7032,1.6406 1.6407,1.6406 z m 13.6406,-4.1953 c 0.9375,0 1.6406,-0.75 1.6406,-1.6641 v -9.3984 c 0,-0.9141 -0.7031,-1.6641 -1.6406,-1.6641 -0.961,0 -1.6641,0.75 -1.6641,1.6641 v 9.3984 c 0,0.9141 0.7031,1.6641 1.6641,1.6641 z M 10.9727,32.5117 c 0.9375,0 1.6406,-0.7266 1.6406,-1.6406 v -5.7422 c 0,-0.914 -0.7031,-1.6406 -1.6406,-1.6406 -0.961,0 -1.6641,0.7266 -1.6641,1.6406 v 5.7422 c 0,0.914 0.7031,1.6406 1.6641,1.6406 z"
           id="path1" /></g></g></g></svg>
